<svg xmlns="http://www.w3.org/2000/svg" viewBox="0 0 100 100">
  <rect x="0" y="0" width="100" height="100" rx="22" fill="#0a2540"></rect>
  <g transform="translate(50,53) scale(1.18) translate(-50,-53)">
  <polygon points="22,38 50,52 50,82 22,68" fill="#117c92"></polygon>
  <polygon points="78,38 50,52 50,82 78,68" fill="#0a4a5a"></polygon>
  <polygon points="50,24 78,38 50,52 22,38" fill="#22d3ee"></polygon>
  <g transform="matrix(0.894,0.447,0,1,36,60)"><path d="M -7,8 L -7,-8 L 0,1 L 7,-8 L 7,8" fill="none" stroke="#cdf6ff" stroke-width="2.9" stroke-linecap="round" stroke-linejoin="round"></path></g>
  <g transform="matrix(0.894,-0.447,0,1,64,60)"><path d="M -6,-8 L -6,8 M -6,0 L 6,-8 M -6,0 L 6,8" fill="none" stroke="#cdf6ff" stroke-width="2.9" stroke-linecap="round" stroke-linejoin="round"></path></g>
  <polygon points="50,24 78,38 78,68 50,82 22,68 22,38" fill="none" stroke="#8af0ff" stroke-width="1.8" stroke-linejoin="round" opacity="0.9"></polygon>
  <line x1="50" y1="52" x2="50" y2="82" stroke="#8af0ff" stroke-width="1.4" opacity="0.32"></line>
  </g>
</svg>