<?xml version="1.0" encoding="UTF-8"?>
<svg version="1.1" xmlns="http://www.w3.org/2000/svg" width="249" height="249">
<path d="M0 0 C38.61 0 77.22 0 117 0 C117 4.62 117 9.24 117 14 C122.94 14 128.88 14 135 14 C135 22.58 135 31.16 135 40 C136.32 40 137.64 40 139 40 C139 44.29 139 48.58 139 53 C144.61 53 150.22 53 156 53 C156 69.5 156 86 156 103 C149.07 103 142.14 103 135 103 C135.01160156 105.58714844 135.02320313 108.17429687 135.03515625 110.83984375 C135.04294662 113.33520383 135.04902349 115.83056257 135.05493164 118.32592773 C135.05997204 120.06519168 135.0668043 121.80445136 135.07543945 123.54370117 C135.08751792 126.03825937 135.09323108 128.53276173 135.09765625 131.02734375 C135.10281754 131.80963852 135.10797882 132.59193329 135.11329651 133.39793396 C135.11349226 135.26567114 135.06199694 137.13329204 135 139 C134 140 134 140 131.07041931 140.12025452 C129.75803787 140.11803391 128.44565643 140.11581329 127.09350586 140.11352539 C126.35988358 140.11364593 125.62626131 140.11376646 124.87040806 140.11389065 C122.48518958 140.11314161 120.10004833 140.10551382 117.71484375 140.09765625 C116.24646034 140.0961868 114.77807642 140.09516611 113.30969238 140.09460449 C107.85228696 140.08935194 102.39489273 140.07539085 96.9375 140.0625 C84.748125 140.041875 72.55875 140.02125 60 140 C60 165.74 60 191.48 60 218 C42.84 218 25.68 218 8 218 C8 210.41 8 202.82 8 195 C5.69 195 3.38 195 1 195 C-0.08124658 155.81294216 -0.12595505 116.64287709 -0.07202661 77.44490683 C-0.05842007 67.36959732 -0.053294 57.29428295 -0.04751682 47.21896648 C-0.0382826 31.47929926 -0.01831377 15.73966536 0 0 Z M59 66 C58.67 69.3 58.34 72.6 58 76 C70.87 76 83.74 76 97 76 C97 72.7 97 69.4 97 66 C84.46 66 71.92 66 59 66 Z " fill="#00FB00" transform="translate(60,17)"/>
<path d="M0 0 C5.61 0 11.22 0 17 0 C17 15.84 17 31.68 17 48 C12.81269376 49.04682656 9.02143069 49.11155353 4.75 49.0625 C4.00492188 49.05798828 3.25984375 49.05347656 2.4921875 49.04882812 C0.6614236 49.03709246 -1.16929873 49.0191585 -3 49 C-2.99476318 50.08531006 -2.98952637 51.17062012 -2.98413086 52.28881836 C-2.96608164 56.30117982 -2.95456829 60.31353767 -2.94506836 64.32592773 C-2.94002796 66.06519168 -2.9331957 67.80445136 -2.92456055 69.54370117 C-2.91248208 72.03825937 -2.90676892 74.53276173 -2.90234375 77.02734375 C-2.89718246 77.80963852 -2.89202118 78.59193329 -2.88670349 79.39793396 C-2.88650774 81.26567114 -2.93800306 83.13329204 -3 85 C-4 86 -4 86 -6.92958069 86.12025452 C-8.24196213 86.11803391 -9.55434357 86.11581329 -10.90649414 86.11352539 C-11.64011642 86.11364593 -12.37373869 86.11376646 -13.12959194 86.11389065 C-15.51481042 86.11314161 -17.89995167 86.10551382 -20.28515625 86.09765625 C-21.75353966 86.0961868 -23.22192358 86.09516611 -24.69030762 86.09460449 C-30.14771304 86.08935194 -35.60510727 86.07539085 -41.0625 86.0625 C-53.251875 86.041875 -65.44125 86.02125 -78 86 C-78 111.74 -78 137.48 -78 164 C-95.16 164 -112.32 164 -130 164 C-130 146 -130 146 -129 140 C-125.7 140 -122.4 140 -119 140 C-119 144.62 -119 149.24 -119 154 C-109.1 154 -99.2 154 -89 154 C-89 127.93 -89 101.86 -89 75 C-64.25 75 -39.5 75 -14 75 C-14 62.79 -14 50.58 -14 38 C-7.07 38 -0.14 38 7 38 C7 28.76 7 19.52 7 10 C4.69 10 2.38 10 0 10 C0 6.7 0 3.4 0 0 Z " fill="#EDDC00" transform="translate(198,71)"/>
<path d="M0 0 C2.31 0 4.62 0 7 0 C7 9.24 7 18.48 7 28 C0.07 28 -6.86 28 -14 28 C-14 40.21 -14 52.42 -14 65 C-38.75 65 -63.5 65 -89 65 C-89 91.07 -89 117.14 -89 144 C-98.9 144 -108.8 144 -119 144 C-119 139.38 -119 134.76 -119 130 C-111.41 130 -103.82 130 -96 130 C-96 103.93 -96 77.86 -96 51 C-71.25 51 -46.5 51 -21 51 C-21 38.79 -21 26.58 -21 14 C-14.07 14 -7.14 14 0 14 C0 9.38 0 4.76 0 0 Z " fill="#2D3327" transform="translate(198,81)"/>
<path d="M0 0 C18.81 0 37.62 0 57 0 C57.65652838 8.53486889 58.13415522 16.79313799 58.0625 25.3125 C58.041875 28.839375 58.02125 32.36625 58 36 C44.47 36 30.94 36 17 36 C17 35.67 17 35.34 17 35 C29.87 35 42.74 35 56 35 C56 31.7 56 28.4 56 25 C43.46 25 30.92 25 18 25 C18 24.67 18 24.34 18 24 C30.87 24 43.74 24 57 24 C57 20.7 57 17.4 57 14 C40.5 14 24 14 7 14 C7 20.93 7 27.86 7 35 C4.69 35 2.38 35 0 35 C0 23.45 0 11.9 0 0 Z " fill="#2E3C23" transform="translate(101,58)"/>
<path d="M0 0 C16.5 0 33 0 50 0 C50 3.3 50 6.6 50 10 C37.13 10 24.26 10 11 10 C11 13.3 11 16.6 11 20 C10.67 20.66 10.34 21.32 10 22 C6.7 22 3.4 22 0 22 C0 14.74 0 7.48 0 0 Z " fill="#F7E500" transform="translate(108,72)"/>
<path d="M0 0 C38.61 0 77.22 0 117 0 C117 4.62 117 9.24 117 14 C122.94 14 128.88 14 135 14 C135 22.58 135 31.16 135 40 C134.34 40 133.68 40 133 40 C133 32.08 133 24.16 133 16 C127.72 16 122.44 16 117 16 C117 18.64 117 21.28 117 24 C119.31 24 121.62 24 124 24 C124 29.28 124 34.56 124 40 C121.69 40 119.38 40 117 40 C116.65971473 35.72969142 116.32906591 31.45868661 116 27.1875 C115.90460938 25.99189453 115.80921875 24.79628906 115.7109375 23.56445312 C115.62070313 22.38173828 115.53046875 21.19902344 115.4375 19.98046875 C115.35371094 18.90692139 115.26992187 17.83337402 115.18359375 16.72729492 C114.94206246 11.82376007 115 6.90947975 115 2 C77.38 2 39.76 2 1 2 C1 8.6 1 15.2 1 22 C0.67 22 0.34 22 0 22 C0 14.74 0 7.48 0 0 Z " fill="#008600" transform="translate(60,17)"/>
<path d="M0 0 C5.28 0 10.56 0 16 0 C16 7.92 16 15.84 16 24 C13.03 24 10.06 24 7 24 C7 18.72 7 13.44 7 8 C4.69 8 2.38 8 0 8 C0 5.36 0 2.72 0 0 Z " fill="#FEEB00" transform="translate(177,33)"/>
<path d="M0 0 C0.74886475 0.00523682 1.49772949 0.01047363 2.26928711 0.01586914 C3.36188843 0.01961548 3.36188843 0.01961548 4.4765625 0.0234375 C5.40718506 0.0325415 6.33780762 0.04164551 7.29663086 0.05102539 C11.72069336 0.08196289 11.72069336 0.08196289 16.23413086 0.11352539 C16.23413086 8.69352539 16.23413086 17.27352539 16.23413086 26.11352539 C15.57413086 26.11352539 14.91413086 26.11352539 14.23413086 26.11352539 C14.23413086 18.19352539 14.23413086 10.27352539 14.23413086 2.11352539 C8.95413086 2.11352539 3.67413086 2.11352539 -1.76586914 2.11352539 C-1.76586914 4.75352539 -1.76586914 7.39352539 -1.76586914 10.11352539 C0.54413086 10.11352539 2.85413086 10.11352539 5.23413086 10.11352539 C5.23413086 15.39352539 5.23413086 20.67352539 5.23413086 26.11352539 C2.92413086 26.11352539 0.61413086 26.11352539 -1.76586914 26.11352539 C-1.9617083 21.96804124 -2.14614756 17.82212869 -2.32836914 13.67602539 C-2.38444336 12.49202148 -2.44051758 11.30801758 -2.49829102 10.08813477 C-2.54663086 8.96342773 -2.5949707 7.8387207 -2.64477539 6.67993164 C-2.69190674 5.63780518 -2.73903809 4.59567871 -2.78759766 3.52197266 C-2.75742245 0.17727104 -2.75742245 0.17727104 0 0 Z " fill="#928E01" transform="translate(178.765869140625,30.886474609375)"/>
<path d="M0 0 C1.98 0 3.96 0 6 0 C6 4.95 6 9.9 6 15 C4.02 15 2.04 15 0 15 C0 10.05 0 5.1 0 0 Z " fill="#2B2728" transform="translate(177,42)"/>
</svg>
