<?xml version="1.0" standalone="no"?>
<!DOCTYPE svg PUBLIC "-//W3C//DTD SVG 20010904//EN"
 "http://www.w3.org/TR/2001/REC-SVG-20010904/DTD/svg10.dtd">
<svg version="1.0" xmlns="http://www.w3.org/2000/svg"
 width="249.000000pt" height="249.000000pt" viewBox="0 0 249.000000 249.000000"
 preserveAspectRatio="xMidYMid meet">

<g transform="translate(0.000000,249.000000) scale(0.100000,-0.100000)"
fill="#000000" stroke="none">
<path d="M1760 1995 l0 -75 35 0 35 0 0 75 0 75 -35 0 -35 0 0 -75z"/>
<path d="M1010 1735 l0 -175 35 0 34 0 3 108 3 107 248 3 247 2 0 65 0 65
-285 0 -285 0 0 -175z"/>
<path d="M1980 1610 l0 -69 -107 -3 -108 -3 -3 -182 -2 -183 -273 0 c-149 0
-316 -3 -369 -7 l-98 -6 0 -389 0 -388 -115 0 -115 0 0 -70 0 -70 150 0 150 0
2 393 3 392 368 3 367 2 0 179 c0 154 2 180 16 185 9 3 58 6 110 6 l94 0 0
140 0 140 -35 0 -35 0 0 -70z"/>
</g>
</svg>
